<svg id="visual" viewBox="0 0 960 540" width="960" height="540" xmlns="http://www.w3.org/2000/svg" xmlns:xlink="http://www.w3.org/1999/xlink" version="1.1"><rect x="0" y="0" width="960" height="540" fill="#0a1e0b"></rect><path d="M496 0L374 0L374 27L460 27L460 54L393 54L393 81L482 81L482 108L438 108L438 135L487 135L487 162L373 162L373 189L350 189L350 216L403 216L403 243L360 243L360 270L360 270L360 297L405 297L405 324L496 324L496 351L404 351L404 378L370 378L370 405L439 405L439 432L388 432L388 459L445 459L445 486L351 486L351 513L497 513L497 540L0 540L0 513L0 513L0 486L0 486L0 459L0 459L0 432L0 432L0 405L0 405L0 378L0 378L0 351L0 351L0 324L0 324L0 297L0 297L0 270L0 270L0 243L0 243L0 216L0 216L0 189L0 189L0 162L0 162L0 135L0 135L0 108L0 108L0 81L0 81L0 54L0 54L0 27L0 27L0 0L0 0Z" fill="#0d2810"></path><path d="M346 0L248 0L248 27L346 27L346 54L338 54L338 81L305 81L305 108L233 108L233 135L218 135L218 162L295 162L295 189L317 189L317 216L327 216L327 243L340 243L340 270L208 270L208 297L269 297L269 324L358 324L358 351L193 351L193 378L227 378L227 405L347 405L347 432L314 432L314 459L363 459L363 486L355 486L355 513L321 513L321 540L0 540L0 513L0 513L0 486L0 486L0 459L0 459L0 432L0 432L0 405L0 405L0 378L0 378L0 351L0 351L0 324L0 324L0 297L0 297L0 270L0 270L0 243L0 243L0 216L0 216L0 189L0 189L0 162L0 162L0 135L0 135L0 108L0 108L0 81L0 81L0 54L0 54L0 27L0 27L0 0L0 0Z" fill="#0f2e13"></path><path d="M90 0L137 0L137 27L179 27L179 54L132 54L132 81L63 81L63 108L81 108L81 135L196 135L196 162L212 162L212 189L203 189L203 216L158 216L158 243L229 243L229 270L129 270L129 297L110 297L110 324L127 324L127 351L66 351L66 378L115 378L115 405L181 405L181 432L128 432L128 459L209 459L209 486L213 486L213 513L165 513L165 540L0 540L0 513L0 513L0 486L0 486L0 459L0 459L0 432L0 432L0 405L0 405L0 378L0 378L0 351L0 351L0 324L0 324L0 297L0 297L0 270L0 270L0 243L0 243L0 216L0 216L0 189L0 189L0 162L0 162L0 135L0 135L0 108L0 108L0 81L0 81L0 54L0 54L0 27L0 27L0 0L0 0Z" fill="#123515"></path></svg>